<?xml version="1.0" encoding="UTF-8"?>
<svg version="1.1" xmlns="http://www.w3.org/2000/svg" width="669" height="682">
<path d="M0 0 C11.22 0 22.44 0 34 0 C34 10.89 34 21.78 34 33 C22.78 33 11.56 33 0 33 C0 22.11 0 11.22 0 0 Z " fill="#000000" transform="translate(292,10)"/>
<path d="M0 0 C14.19 0.33 28.38 0.66 43 1 C43 14.53 43 28.06 43 42 C28.81 42 14.62 42 0 42 C0 28.14 0 14.28 0 0 Z " fill="#000000" transform="translate(353,76)"/>
<path d="M0 0 C15.84 0 31.68 0 48 0 C47.67 15.51 47.34 31.02 47 47 C31.49 47 15.98 47 0 47 C0 31.49 0 15.98 0 0 Z " fill="#000000" transform="translate(276,132)"/>
<path d="M0 0 C15.04303936 14.06332691 25.98391397 32.32776478 28.66015625 52.99609375 C28.82936301 54.29665427 28.99856977 55.59721479 29.17290401 56.93718624 C29.77772024 62.44427905 29.79597352 67.90729938 29.78041077 73.44252014 C29.7816924 75.12626957 29.7816924 75.12626957 29.78299993 76.84403414 C29.78464129 80.58882893 29.77915541 84.3335785 29.77368164 88.07836914 C29.77339945 90.76931865 29.77351414 93.46026542 29.77412415 96.1512146 C29.77464721 101.93619819 29.77152316 107.72117046 29.76588631 113.5061512 C29.7577418 121.87014939 29.75515306 130.23414214 29.75389832 138.59814387 C29.75171243 152.16984315 29.74506491 165.74153641 29.7355957 179.31323242 C29.7264096 192.49291962 29.71933463 205.67260517 29.71508789 218.85229492 C29.71469381 220.07192284 29.71469381 220.07192284 29.71429176 221.31618971 C29.71298667 225.39540545 29.71172298 229.47462119 29.71047986 233.55383694 C29.70012167 267.36792691 29.68251597 301.18200959 29.66015625 334.99609375 C30.77040215 334.05130135 31.87966695 333.10535596 32.98852539 332.15893555 C33.91526817 331.36896431 33.91526817 331.36896431 34.86073303 330.56303406 C37.35222312 328.39344093 39.71389854 326.09547887 42.09765625 323.80859375 C72.56183014 295.44506046 116.27986327 279.81170247 156.53515625 272.68359375 C157.36370117 272.53639893 158.19224609 272.3892041 159.04589844 272.23754883 C174.94769717 269.62947071 190.86864845 268.64282044 206.96679688 268.68041992 C209.76342252 268.68356928 212.55897314 268.66002335 215.35546875 268.63476562 C230.19573142 268.62961276 243.67000533 270.26646095 258.66015625 271.99609375 C258.66015625 169.36609375 258.66015625 66.73609375 258.66015625 -39.00390625 C235.87129716 -40.76461426 235.87129716 -40.76461426 213.09765625 -41.31640625 C212.32364471 -41.31491577 211.54963318 -41.31342529 210.75216675 -41.31188965 C196.56673737 -41.26348693 182.68399996 -40.2157126 168.66015625 -38.00390625 C167.71188965 -37.85937012 166.76362305 -37.71483398 165.78662109 -37.56591797 C154.23666774 -35.76863934 143.02024674 -33.22287554 131.80175781 -29.93432617 C130.93905273 -29.68400635 130.07634766 -29.43368652 129.1875 -29.17578125 C128.43202881 -28.94987305 127.67655762 -28.72396484 126.89819336 -28.49121094 C124.38854484 -27.94476625 122.22051497 -27.79362092 119.66015625 -28.00390625 C116.27750619 -31.90696401 114.44337564 -37.92589043 113.66015625 -43.00390625 C116.06980802 -46.61838391 117.09977064 -46.72050498 121.1796875 -47.87109375 C122.33267334 -48.19706543 123.48565918 -48.52303711 124.67358398 -48.85888672 C125.92727783 -49.19549316 127.18097168 -49.53209961 128.47265625 -49.87890625 C129.11486115 -50.05343323 129.75706604 -50.22796021 130.41873169 -50.40777588 C172.0450293 -61.65923857 232.38786126 -70.83651651 273.83056641 -54.12890625 C275.66015625 -53.00390625 275.66015625 -53.00390625 277.66015625 -50.00390625 C277.91315591 -47.47505957 277.91315591 -47.47505957 277.91742516 -44.38288212 C277.92387405 -43.20547146 277.93032294 -42.0280608 277.93696725 -40.81497103 C277.93387005 -39.51518846 277.93077285 -38.21540588 277.92758179 -36.87623596 C277.93131639 -35.48643733 277.93591715 -34.09664079 277.94131243 -32.70684761 C277.95358119 -28.87899377 277.95327743 -25.05122707 277.95092368 -21.22335804 C277.95051649 -17.09853755 277.96154519 -12.97374537 277.97103882 -8.84893799 C277.9876706 -0.76468247 277.99314933 7.31954389 277.99426357 15.40381508 C277.99521294 21.97265019 277.99931764 28.54147564 278.00566483 35.11030769 C278.02328253 53.72107256 278.03250277 72.33181434 278.03100388 90.94258761 C278.03088401 92.44839322 278.03088401 92.44839322 278.03076172 93.98461914 C278.03067996 94.98971057 278.0305982 95.994802 278.03051396 97.03035075 C278.02970072 113.32637739 278.04884648 129.62231167 278.07703845 145.91831159 C278.10573611 162.63809596 278.1195805 179.35783524 278.1178509 196.07764488 C278.11718596 205.46975068 278.12272383 214.86175964 278.144207 224.25384331 C278.16237776 232.24922105 278.16680001 240.24445807 278.15318815 248.23984747 C278.14663787 252.32137447 278.14661504 256.40263114 278.16389465 260.48413277 C278.17954004 264.21792532 278.17685024 267.95123133 278.15932639 271.68501139 C278.15477016 273.68116029 278.16998046 275.67732376 278.18580568 277.67341512 C278.17200929 279.44344273 278.17200929 279.44344273 278.15793419 281.24922848 C278.15858629 282.78009984 278.15858629 282.78009984 278.15925157 284.3418979 C277.5268557 287.70498795 276.2781838 288.86640046 273.66015625 290.99609375 C267.27798023 294.18718176 257.09284054 291.42589474 250.28515625 290.55859375 C239.40538599 289.24712467 228.6156188 288.26504946 217.66015625 287.99609375 C216.81066406 287.97417969 215.96117187 287.95226562 215.0859375 287.9296875 C160.13800139 286.72644802 98.07939191 300.12919649 55.421875 336.77734375 C52.66015625 338.99609375 52.66015625 338.99609375 50.66015625 338.99609375 C50.66015625 339.65609375 50.66015625 340.31609375 50.66015625 340.99609375 C49.61290818 341.91397588 48.51877668 342.77836196 47.41015625 343.62109375 C37.67117033 351.9095924 30.57189117 363.54858506 24.37890625 374.6171875 C22.66015625 376.99609375 22.66015625 376.99609375 20.44140625 377.84375 C19.85359375 377.89402344 19.26578125 377.94429687 18.66015625 377.99609375 C14.72236282 373.33243978 11.67412981 368.27335562 8.546875 363.0546875 C6.01716844 358.91731695 3.30032902 355.20606994 0.07324219 351.58349609 C-1.40402511 349.92399506 -2.81036865 348.21737346 -4.21484375 346.49609375 C-31.18316764 315.30964741 -79.95107959 298.45989095 -119.33984375 291.99609375 C-120.07316925 291.87081299 -120.80649475 291.74553223 -121.56204224 291.61645508 C-136.21489712 289.16184071 -150.59888557 288.52604314 -165.44213867 288.60498047 C-169.00674148 288.62100116 -172.57019774 288.60506361 -176.13476562 288.5859375 C-190.46569667 288.57485393 -204.43347743 289.53689071 -218.64770508 291.35302734 C-230.99738502 292.8529823 -230.99738502 292.8529823 -235.27734375 290.12109375 C-238.46208632 286.83984383 -238.46537375 285.00130903 -238.4684782 280.52935219 C-238.47170265 279.36089937 -238.4749271 278.19244655 -238.47824925 276.98858607 C-238.47670065 275.69367255 -238.47515205 274.39875903 -238.47355652 273.06460571 C-238.47542325 271.68392162 -238.4777234 270.30323805 -238.48042184 268.92255533 C-238.48656333 265.11526325 -238.4864035 261.30799305 -238.48522747 257.50069714 C-238.48502405 253.39972784 -238.49053656 249.29876568 -238.49528503 245.19779968 C-238.50360506 237.15819525 -238.50634049 229.11859814 -238.50689741 221.07898976 C-238.50737195 214.5463658 -238.50942355 208.01374426 -238.51259804 201.48112106 C-238.5214084 182.97512677 -238.52601683 164.46913828 -238.52526756 145.96314187 C-238.52522761 144.96468006 -238.52518765 143.96621824 -238.52514648 142.9375 C-238.52508516 141.43798644 -238.52508516 141.43798644 -238.5250226 139.90817969 C-238.52461605 123.70265055 -238.5341869 107.49714465 -238.54828485 91.29162224 C-238.56263388 74.66679551 -238.56955584 58.04198012 -238.56869107 41.41714704 C-238.56835859 32.07759393 -238.57112819 22.73806516 -238.58186913 13.39851761 C-238.5909548 5.44706519 -238.59316537 -2.50435185 -238.5863597 -10.45580719 C-238.58308464 -14.51497552 -238.58307314 -18.57407589 -238.59171295 -22.63323784 C-238.59953562 -26.34659112 -238.59819022 -30.05982208 -238.58942882 -33.77317221 C-238.58715079 -35.75842233 -238.59475559 -37.74367611 -238.60266846 -39.72891176 C-238.59806967 -40.90258007 -238.59347087 -42.07624839 -238.58873272 -43.28548241 C-238.58895009 -44.30052987 -238.58916746 -45.31557732 -238.58939141 -46.3613838 C-238.32819975 -49.12720749 -237.91579603 -50.72450871 -236.33984375 -53.00390625 C-164.05475789 -85.27403387 -55.12367503 -50.03433838 0 0 Z M-219.33984375 -38.00390625 C-219.33984375 64.29609375 -219.33984375 166.59609375 -219.33984375 271.99609375 C-211.08984375 271.33609375 -202.83984375 270.67609375 -194.33984375 269.99609375 C-186.91201483 269.79777793 -179.51588598 269.65249594 -172.08984375 269.68359375 C-171.1229361 269.68608124 -170.15602844 269.68856873 -169.15982056 269.69113159 C-103.50355845 269.95025942 -36.72418049 288.46341809 10.66015625 335.99609375 C10.75184664 300.98030272 10.82226329 265.96453611 10.86441757 230.94865015 C10.86941999 226.80837725 10.87459732 222.66810458 10.87988281 218.52783203 C10.88145668 217.29152704 10.88145668 217.29152704 10.88306233 216.0302462 C10.9004356 202.71027406 10.9319562 189.39037145 10.96876743 176.07044047 C11.00626276 162.3881774 11.0284102 148.70595058 11.03651023 135.02363825 C11.04198025 126.59077982 11.05921417 118.15811797 11.09182212 109.7253201 C11.11307628 103.93121976 11.11933184 98.13722005 11.11416176 92.34308362 C11.11161672 89.00730222 11.11756412 85.67213632 11.13697815 82.33637047 C11.27742969 56.94604241 8.03264228 37.64315575 -9.33984375 17.99609375 C-10.19785956 16.91580644 -11.05279804 15.8330546 -11.90234375 14.74609375 C-40.02246628 -16.97917269 -86.82039215 -32.51465363 -127.33984375 -39.00390625 C-128.2819873 -39.15633789 -129.22413086 -39.30876953 -130.19482422 -39.46582031 C-144.49290741 -41.67802165 -158.64960518 -42.27143102 -173.08984375 -42.25390625 C-173.89477264 -42.25322144 -174.69970154 -42.25253662 -175.52902222 -42.25183105 C-190.58292078 -42.20951943 -204.45524634 -41.19346284 -219.33984375 -38.00390625 Z " fill="#000000" transform="translate(315.33984375,260.00390625)"/>
<path d="M0 0 C11.88 0 23.76 0 36 0 C36.020625 5.754375 36.04125 11.50875 36.0625 17.4375 C36.071604 19.25564209 36.08070801 21.07378418 36.09008789 22.94702148 C36.09300711 24.38004482 36.09555566 25.81306898 36.09765625 27.24609375 C36.10277222 27.99669067 36.10788818 28.7472876 36.11315918 29.52062988 C36.11346992 31.34747601 36.06231113 33.17421683 36 35 C35 36 35 36 31.67358398 36.11352539 C30.19774445 36.11327435 28.72189903 36.10771514 27.24609375 36.09765625 C26.55906372 36.09664917 25.87203369 36.09564209 25.16418457 36.09460449 C22.58860616 36.08935776 20.01305147 36.07539659 17.4375 36.0625 C11.683125 36.041875 5.92875 36.02125 0 36 C0 24.12 0 12.24 0 0 Z " fill="#000000" transform="translate(344,210)"/>
<path d="M0 0 C0.88292725 0.22937256 1.76585449 0.45874512 2.67553711 0.69506836 C24.34345861 6.45156197 24.34345861 6.45156197 27.5625 11.875 C27.93969816 14.5985775 27.93969816 14.5985775 27.94281673 17.79086304 C27.95125668 19.0085821 27.95969662 20.22630116 27.96839231 21.48092079 C27.96259692 22.83412418 27.95651589 24.18732637 27.95018005 25.54052734 C27.95435164 26.97656357 27.95982819 28.41259649 27.96649987 29.84862328 C27.98099622 33.79967651 27.97669678 37.7505219 27.96933305 41.70158672 C27.96461404 45.96068486 27.97709992 50.21973721 27.98735046 54.4788208 C28.00456827 62.82431143 28.00537237 71.16972687 28.00013756 79.51523066 C27.99610046 86.29619264 27.99753393 93.07713235 28.00288582 99.85809326 C28.00363424 100.82222212 28.00438266 101.78635098 28.00515376 102.77969587 C28.0066852 104.73814281 28.00822354 106.69658975 28.00976873 108.65503669 C28.02350436 127.0308313 28.01804844 145.40658336 28.00658352 163.782377 C27.99664818 180.60536458 28.00959512 197.42824222 28.03351771 214.25121284 C28.05788056 231.51343968 28.06752364 248.77561526 28.06086498 266.03785896 C28.05736673 275.73399172 28.0596448 285.43003987 28.07711601 295.12615967 C28.09180278 303.37953369 28.09251971 311.63276354 28.0750451 319.88613462 C28.06650385 324.09930268 28.06446127 328.3122128 28.07969666 332.52536774 C28.09346123 336.37940131 28.08888793 340.23295397 28.06945742 344.08695912 C28.06567163 345.48393907 28.06869301 346.88095678 28.07906907 348.27790332 C28.09213883 350.17161027 28.07833358 352.06544641 28.06307125 353.95913696 C28.06296391 355.01259119 28.06285658 356.06604542 28.06274599 357.1514225 C27.42847373 360.60470286 26.32640661 361.76507013 23.5625 363.875 C17.78695584 365.22809402 14.63644639 364.97726315 9.1875 362.4375 C-51.75409099 335.75759708 -133.43958647 325.93788751 -196.33935547 349.984375 C-198.71290191 350.93096049 -201.07908799 351.89139689 -203.4375 352.875 C-202.21345459 352.81441406 -200.98940918 352.75382812 -199.72827148 352.69140625 C-195.11565396 352.46408147 -190.50281168 352.24162108 -185.88989258 352.02050781 C-183.90675683 351.9247957 -181.92368131 351.82782586 -179.94067383 351.72949219 C-161.85646022 350.83418886 -144.06945309 350.70882699 -126 352 C-125.11164459 352.06302307 -124.22328918 352.12604614 -123.30801392 352.190979 C-106.03087952 353.45635964 -89.33549863 356.09446454 -72.4375 359.875 C-71.48198242 360.08382813 -70.52646484 360.29265625 -69.54199219 360.5078125 C-55.23831049 363.67818894 -41.30668656 368.18548564 -27.4375 372.875 C-26.4077002 373.21515137 -25.37790039 373.55530273 -24.31689453 373.90576172 C-23.3267334 374.24494629 -22.33657227 374.58413086 -21.31640625 374.93359375 C-20.42638916 375.23450928 -19.53637207 375.5354248 -18.61938477 375.84545898 C-16.4375 376.875 -16.4375 376.875 -14.4375 379.875 C-13.99884517 384.40776656 -13.9004979 386.80099581 -15.9375 390.875 C-19.32497751 393.58498201 -22.29968395 393.31076077 -26.4375 392.875 C-29.8046875 391.84375 -29.8046875 391.84375 -33.3125 390.375 C-72.29167829 374.90475621 -112.65466002 370.2546378 -154.26211548 370.42918015 C-156.5323406 370.43762023 -158.80251434 370.44022106 -161.07275391 370.44168091 C-184.73215189 370.47050918 -208.17569981 371.10654301 -231.4375 375.875 C-231.56278076 376.45878418 -231.68806152 377.04256836 -231.81713867 377.64404297 C-237.53240107 403.90055459 -237.53240107 403.90055459 -244.9375 410.25 C-256.89142399 417.75738526 -269.61874447 417.50443194 -283.2668457 417.39648438 C-286.49701816 417.37501981 -289.72497268 417.39637739 -292.95507812 417.421875 C-306.33328789 417.44031988 -317.70176282 417.08883337 -328.71875 408.6328125 C-334.56453014 402.65417372 -336.09962036 395.93931915 -338.1875 388 C-338.50332031 386.8346875 -338.81914062 385.669375 -339.14453125 384.46875 C-339.91870392 381.60665712 -340.6826614 378.74224104 -341.4375 375.875 C-345.39337804 375.21354189 -349.35253626 374.5740014 -353.3125 373.9375 C-354.40175781 373.75509766 -355.49101562 373.57269531 -356.61328125 373.38476562 C-375.3495657 370.40645451 -394.31337604 370.63173093 -413.23583984 370.57983398 C-416.09543702 370.57105678 -418.95453515 370.55033998 -421.81396484 370.51831055 C-462.19754581 370.0766407 -502.17029618 375.25231917 -539.76831055 390.65356445 C-548.95587234 394.40838596 -548.95587234 394.40838596 -553.5625 392.75 C-556.77333237 390.65597889 -558.05862213 389.44386038 -559.4375 385.875 C-559.5625 382.3125 -559.5625 382.3125 -558.4375 378.875 C-552.22690135 374.50259578 -544.96999994 372.41713832 -537.8125 370.0625 C-536.83091415 369.73726349 -536.83091415 369.73726349 -535.82949829 369.40545654 C-505.94134225 359.55398503 -475.60762828 354.02562627 -444.23535156 352.05419922 C-441.8087222 351.89877636 -439.38511744 351.72435232 -436.9609375 351.53515625 C-421.27907667 350.35008809 -405.74236261 351.10087822 -390.0625 351.875 C-388.05470219 351.97165973 -386.04688975 352.06801609 -384.0390625 352.1640625 C-379.1716995 352.39754902 -374.30455214 352.63512431 -369.4375 352.875 C-372.43263857 351.74781222 -375.43087253 350.62908504 -378.4296875 349.51171875 C-379.26781982 349.19618042 -380.10595215 348.88064209 -380.96948242 348.55554199 C-443.70645413 325.2458528 -522.7591668 337.94101634 -583 362.9375 C-588.06575477 364.95290781 -591.18419402 365.49874912 -596.4375 363.875 C-599.17157771 361.75001288 -600.30465307 360.59466566 -600.94004732 357.15257317 C-600.94123881 356.09966101 -600.94243029 355.04674886 -600.94365788 353.96193027 C-600.95470556 352.74482791 -600.96575325 351.52772555 -600.97713572 350.2737413 C-600.9691782 348.92122592 -600.96084051 347.56871274 -600.9521637 346.21620178 C-600.95748719 344.78087522 -600.96455174 343.34555424 -600.97321075 341.91024393 C-600.99189152 337.96106747 -600.98551461 334.01226463 -600.97505772 330.06307232 C-600.96808101 325.80598662 -600.984052 321.54897886 -600.99705505 317.29191589 C-601.01872618 308.95008184 -601.01856018 300.60838403 -601.01042951 292.26653106 C-601.00413613 285.48795571 -601.00526045 278.70942018 -601.01170158 271.93084526 C-601.01260324 270.96700512 -601.01350489 270.00316499 -601.01443387 269.01011757 C-601.01628503 267.05223635 -601.01814759 265.09435514 -601.02002143 263.13647395 C-601.03661082 244.76540536 -601.0278711 226.3944135 -601.01103585 208.02334952 C-600.9963386 191.2074791 -601.01096564 174.39178736 -601.03980602 157.57593996 C-601.06918243 140.31935029 -601.08017738 123.06284312 -601.07062382 105.80622953 C-601.06960124 103.8551432 -601.06860663 101.90405686 -601.0676403 99.9529705 C-601.06716391 98.99294364 -601.06668752 98.03291678 -601.0661967 97.0437982 C-601.06403021 90.27235719 -601.07384916 83.5009941 -601.08841133 76.72957039 C-601.10590704 68.47875688 -601.10585718 60.2281712 -601.08305968 51.97736675 C-601.0718921 47.7660508 -601.06881143 43.55513666 -601.08736038 39.34383774 C-601.10411553 35.49027073 -601.09788267 31.63745749 -601.07314359 27.78393977 C-601.0682434 26.38828982 -601.07182197 24.99257964 -601.08463103 23.59697986 C-601.18464844 11.85427325 -601.18464844 11.85427325 -598.05497646 8.58803463 C-595.46258375 6.89141632 -593.27371175 5.78451317 -590.3125 4.890625 C-589.35859375 4.59542969 -588.4046875 4.30023438 -587.421875 3.99609375 C-585.94460938 3.56490234 -585.94460938 3.56490234 -584.4375 3.125 C-583.45265625 2.82207031 -582.4678125 2.51914062 -581.453125 2.20703125 C-565.04945127 -2.78057225 -565.04945127 -2.78057225 -558 -0.25 C-556.4375 0.875 -556.4375 0.875 -555.4375 2.875 C-555.453125 4.93359375 -555.453125 4.93359375 -555.6875 7.3125 C-555.75453125 8.09496094 -555.8215625 8.87742187 -555.890625 9.68359375 C-556.55417287 12.34252485 -557.35059365 13.13135994 -559.4375 14.875 C-561.45874023 15.67456055 -561.45874023 15.67456055 -563.74609375 16.26171875 C-564.57560547 16.47763672 -565.40511719 16.69355469 -566.25976562 16.91601562 C-567.55430664 17.23602539 -567.55430664 17.23602539 -568.875 17.5625 C-569.73416016 17.78744141 -570.59332031 18.01238281 -571.47851562 18.24414062 C-575.32316303 19.22543542 -578.42887692 19.875 -582.4375 19.875 C-582.4375 126.135 -582.4375 232.395 -582.4375 341.875 C-578.1475 340.225 -573.8575 338.575 -569.4375 336.875 C-548.14384755 330.00044189 -526.67725959 325.34245175 -504.5625 322.125 C-503.83654633 322.0179071 -503.11059265 321.91081421 -502.36264038 321.80047607 C-484.51848266 319.1950284 -466.95591422 318.64658176 -448.9375 319.0625 C-447.97083405 319.08422272 -447.00416809 319.10594543 -446.00820923 319.12832642 C-430.86415461 319.49774698 -416.24778361 320.47596141 -401.4375 323.875 C-400.45072266 324.09849121 -399.46394531 324.32198242 -398.44726562 324.55224609 C-373.95837842 330.23632806 -341.53325803 339.23136295 -326.75 361.40625 C-322.32504088 368.97973772 -320.74982937 375.91969873 -320.0625 384.5625 C-319.60345253 389.1857638 -318.08159917 392.06438649 -315.4375 395.875 C-309.84232364 399.60511758 -303.0324188 399.03379395 -296.50390625 399.04296875 C-295.66713852 399.04629715 -294.83037079 399.04962555 -293.96824646 399.05305481 C-292.20759629 399.05809213 -290.44693667 399.06046413 -288.6862793 399.06030273 C-286.01139443 399.06249068 -283.33692156 399.0806844 -280.66210938 399.09960938 C-278.94270973 399.10254379 -277.22330814 399.10452827 -275.50390625 399.10546875 C-274.31916466 399.11624702 -274.31916466 399.11624702 -273.11048889 399.12724304 C-266.80635478 399.1016422 -261.43228486 397.87326162 -255.4375 395.875 C-253.14812511 391.73044201 -252.96559675 387.31417196 -252.5625 382.6875 C-251.37398894 371.400851 -248.12002558 363.38009902 -240.4375 354.875 C-239.87160156 354.23046875 -239.30570312 353.5859375 -238.72265625 352.921875 C-227.35106121 341.48051557 -209.63089248 334.69687745 -194.4375 329.875 C-193.40906982 329.54725586 -193.40906982 329.54725586 -192.35986328 329.21289062 C-183.37954091 326.41436202 -174.30907733 324.33674482 -165.0625 322.625 C-164.18384277 322.46177246 -163.30518555 322.29854492 -162.39990234 322.13037109 C-149.63021056 319.88785369 -136.76393088 319.58290504 -123.83203125 319.26245117 C-120.97089891 319.18836483 -118.11062526 319.09722404 -115.25 319.00585938 C-103.52842961 318.68211247 -92.15702501 319.18674916 -80.51904297 320.618927 C-77.78116441 320.9557429 -75.03883467 321.24927056 -72.296875 321.55078125 C-52.62348456 323.92988893 -33.57091979 328.12800581 -14.5 333.4375 C-13.47025558 333.72188934 -13.47025558 333.72188934 -12.41970825 334.01202393 C-10.43485414 334.56335739 -8.45336004 335.12536245 -6.47265625 335.69140625 C-5.3319165 336.01568604 -4.19117676 336.33996582 -3.01586914 336.67407227 C1.28542954 338.11762062 5.41647324 340.03232144 9.5625 341.875 C9.5625 235.615 9.5625 129.355 9.5625 19.875 C7.2525 19.545 4.9425 19.215 2.5625 18.875 C-0.03979619 18.2665684 -2.60961319 17.63234123 -5.1875 16.9375 C-6.17556641 16.68323242 -6.17556641 16.68323242 -7.18359375 16.42382812 C-10.38466544 15.56999257 -12.65137134 14.73241911 -15.4375 12.875 C-17.17097419 8.75192354 -17.87661186 5.11484526 -16.375 0.875 C-11.68036624 -3.97107356 -5.78145427 -1.53523144 0 0 Z " fill="#000000" transform="translate(621.4375,258.125)"/>
</svg>
